<mxfile host="app.diagrams.net" modified="2021-03-09T13:31:50.748Z" agent="5.0 (Windows NT 10.0; Win64; x64) AppleWebKit/537.36 (KHTML, like Gecko) Chrome/88.0.4324.190 Safari/537.36" etag="SeJsK6v4hh5x2Rx3sMpJ" version="14.4.5" type="github">
  <diagram id="kgpKYQtTHZ0yAKxKKP6v" name="Page-1">
    <mxGraphModel dx="844" dy="463" grid="1" gridSize="10" guides="1" tooltips="1" connect="1" arrows="1" fold="1" page="1" pageScale="1" pageWidth="850" pageHeight="1100" math="0" shadow="0">
      <root>
        <mxCell id="0" />
        <mxCell id="1" parent="0" />
        <mxCell id="hdQT7R_Fs5b0nxvV7VJJ-1" value="server&#xa;" style="shape=umlLifeline;perimeter=lifelinePerimeter;container=1;collapsible=0;recursiveResize=0;rounded=0;shadow=0;strokeWidth=1;" vertex="1" parent="1">
          <mxGeometry x="485" y="430" width="100" height="300" as="geometry" />
        </mxCell>
        <mxCell id="hdQT7R_Fs5b0nxvV7VJJ-2" value="" style="points=[];perimeter=orthogonalPerimeter;rounded=0;shadow=0;strokeWidth=1;" vertex="1" parent="hdQT7R_Fs5b0nxvV7VJJ-1">
          <mxGeometry x="45" y="80" width="10" height="160" as="geometry" />
        </mxCell>
        <mxCell id="hdQT7R_Fs5b0nxvV7VJJ-3" value="" style="endArrow=classic;html=1;" edge="1" parent="hdQT7R_Fs5b0nxvV7VJJ-1" source="hdQT7R_Fs5b0nxvV7VJJ-14">
          <mxGeometry width="50" height="50" relative="1" as="geometry">
            <mxPoint x="-305" y="130" as="sourcePoint" />
            <mxPoint x="50" y="130" as="targetPoint" />
          </mxGeometry>
        </mxCell>
        <mxCell id="hdQT7R_Fs5b0nxvV7VJJ-4" value="database" style="shape=umlLifeline;perimeter=lifelinePerimeter;container=1;collapsible=0;recursiveResize=0;rounded=0;shadow=0;strokeWidth=1;" vertex="1" parent="1">
          <mxGeometry x="705" y="430" width="100" height="300" as="geometry" />
        </mxCell>
        <mxCell id="hdQT7R_Fs5b0nxvV7VJJ-5" value="" style="points=[];perimeter=orthogonalPerimeter;rounded=0;shadow=0;strokeWidth=1;" vertex="1" parent="hdQT7R_Fs5b0nxvV7VJJ-4">
          <mxGeometry x="45" y="80" width="10" height="160" as="geometry" />
        </mxCell>
        <mxCell id="hdQT7R_Fs5b0nxvV7VJJ-6" value="" style="endArrow=classic;html=1;" edge="1" parent="1" source="hdQT7R_Fs5b0nxvV7VJJ-1" target="hdQT7R_Fs5b0nxvV7VJJ-4">
          <mxGeometry width="50" height="50" relative="1" as="geometry">
            <mxPoint x="485" y="600" as="sourcePoint" />
            <mxPoint x="535" y="550" as="targetPoint" />
            <Array as="points">
              <mxPoint x="645" y="590" />
            </Array>
          </mxGeometry>
        </mxCell>
        <mxCell id="hdQT7R_Fs5b0nxvV7VJJ-7" value="" style="endArrow=none;dashed=1;html=1;exitX=1.1;exitY=0.65;exitDx=0;exitDy=0;exitPerimeter=0;" edge="1" parent="1">
          <mxGeometry width="50" height="50" relative="1" as="geometry">
            <mxPoint x="541" y="632" as="sourcePoint" />
            <mxPoint x="754.5" y="632" as="targetPoint" />
          </mxGeometry>
        </mxCell>
        <mxCell id="hdQT7R_Fs5b0nxvV7VJJ-8" value="&lt;b&gt;Card Added&lt;/b&gt;" style="text;html=1;align=center;verticalAlign=middle;resizable=0;points=[];autosize=1;" vertex="1" parent="1">
          <mxGeometry x="595" y="605" width="80" height="20" as="geometry" />
        </mxCell>
        <mxCell id="hdQT7R_Fs5b0nxvV7VJJ-9" value="&lt;span style=&quot;text-align: left&quot;&gt;AddCard()&lt;/span&gt;" style="text;html=1;align=center;verticalAlign=middle;resizable=0;points=[];autosize=1;" vertex="1" parent="1">
          <mxGeometry x="605" y="570" width="70" height="20" as="geometry" />
        </mxCell>
        <mxCell id="hdQT7R_Fs5b0nxvV7VJJ-10" value="&lt;span style=&quot;text-align: left&quot;&gt;AddCard()&lt;/span&gt;" style="text;html=1;align=center;verticalAlign=middle;resizable=0;points=[];autosize=1;" vertex="1" parent="1">
          <mxGeometry x="365" y="538" width="70" height="20" as="geometry" />
        </mxCell>
        <mxCell id="hdQT7R_Fs5b0nxvV7VJJ-11" value="" style="endArrow=none;dashed=1;html=1;" edge="1" parent="1">
          <mxGeometry width="50" height="50" relative="1" as="geometry">
            <mxPoint x="164.5" y="639" as="sourcePoint" />
            <mxPoint x="534.5" y="639" as="targetPoint" />
            <Array as="points">
              <mxPoint x="445" y="639" />
            </Array>
          </mxGeometry>
        </mxCell>
        <mxCell id="hdQT7R_Fs5b0nxvV7VJJ-12" value="&lt;b&gt;Card Added&lt;/b&gt;" style="text;html=1;align=center;verticalAlign=middle;resizable=0;points=[];autosize=1;" vertex="1" parent="1">
          <mxGeometry x="395" y="612" width="80" height="20" as="geometry" />
        </mxCell>
        <mxCell id="hdQT7R_Fs5b0nxvV7VJJ-13" value="" style="shape=umlLifeline;participant=umlActor;perimeter=lifelinePerimeter;whiteSpace=wrap;html=1;container=1;collapsible=0;recursiveResize=0;verticalAlign=top;spacingTop=36;outlineConnect=0;size=40;" vertex="1" parent="1">
          <mxGeometry x="155" y="420" width="20" height="300" as="geometry" />
        </mxCell>
        <mxCell id="hdQT7R_Fs5b0nxvV7VJJ-14" value="" style="points=[];perimeter=orthogonalPerimeter;rounded=0;shadow=0;strokeWidth=1;" vertex="1" parent="hdQT7R_Fs5b0nxvV7VJJ-13">
          <mxGeometry x="5" y="90" width="10" height="160" as="geometry" />
        </mxCell>
        <mxCell id="hdQT7R_Fs5b0nxvV7VJJ-15" value="Dealer" style="text;html=1;align=center;verticalAlign=middle;resizable=0;points=[];autosize=1;" vertex="1" parent="1">
          <mxGeometry x="138" y="390" width="50" height="20" as="geometry" />
        </mxCell>
      </root>
    </mxGraphModel>
  </diagram>
</mxfile>
